<mxfile host="65bd71144e">
    <diagram id="pIsPSVw4wNhW4OB5O9Dt" name="Page-1">
        <mxGraphModel dx="1107" dy="685" grid="1" gridSize="10" guides="1" tooltips="1" connect="1" arrows="1" fold="1" page="1" pageScale="1" pageWidth="850" pageHeight="1100" math="0" shadow="0">
            <root>
                <mxCell id="0"/>
                <mxCell id="1" parent="0"/>
                <mxCell id="330" value="" style="group" parent="1" vertex="1" connectable="0">
                    <mxGeometry x="100" width="160" height="140" as="geometry"/>
                </mxCell>
                <mxCell id="316" value="s = 0, b = 0" style="rounded=0;whiteSpace=wrap;html=1;fontFamily=Lucida Console;align=left;strokeColor=none;fillColor=none;" parent="330" vertex="1">
                    <mxGeometry width="160" height="20" as="geometry"/>
                </mxCell>
                <mxCell id="317" value="s = 0, b = 1" style="rounded=0;whiteSpace=wrap;html=1;fontFamily=Lucida Console;align=left;strokeColor=none;fillColor=none;" parent="330" vertex="1">
                    <mxGeometry y="40" width="160" height="20" as="geometry"/>
                </mxCell>
                <mxCell id="318" value="s = 1, b = 0" style="rounded=0;whiteSpace=wrap;html=1;fontFamily=Lucida Console;align=left;strokeColor=none;fillColor=none;" parent="330" vertex="1">
                    <mxGeometry y="80" width="160" height="20" as="geometry"/>
                </mxCell>
                <mxCell id="319" value="s = 1, b = 1" style="rounded=0;whiteSpace=wrap;html=1;fontFamily=Lucida Console;align=left;strokeColor=none;fillColor=none;" parent="330" vertex="1">
                    <mxGeometry y="120" width="160" height="20" as="geometry"/>
                </mxCell>
                <mxCell id="300" value="" style="rounded=1;whiteSpace=wrap;html=1;fontFamily=Lucida Console;align=right;shadow=0;sketch=1;fillStyle=cross-hatch;fillColor=#FF0000;" parent="1" vertex="1">
                    <mxGeometry width="40" height="20" as="geometry"/>
                </mxCell>
                <mxCell id="301" value="" style="rounded=1;whiteSpace=wrap;html=1;fontFamily=Lucida Console;align=right;shadow=0;sketch=1;fillColor=#00FF00;fillStyle=cross-hatch;" parent="1" vertex="1">
                    <mxGeometry y="40" width="20" height="20" as="geometry"/>
                </mxCell>
                <mxCell id="302" value="" style="rounded=1;whiteSpace=wrap;html=1;fontFamily=Lucida Console;align=right;shadow=0;sketch=1;fillStyle=cross-hatch;fillColor=#0000FF;" parent="1" vertex="1">
                    <mxGeometry y="80" width="60" height="20" as="geometry"/>
                </mxCell>
                <mxCell id="311" value="" style="rounded=1;whiteSpace=wrap;html=1;fontFamily=Lucida Console;align=right;shadow=0;sketch=1;fillStyle=cross-hatch;fillColor=#FF8000;" parent="1" vertex="1">
                    <mxGeometry y="120" width="40" height="20" as="geometry"/>
                </mxCell>
            </root>
        </mxGraphModel>
    </diagram>
</mxfile>